<svg width="176" height="28" viewBox="0 0 176 28" fill="none" xmlns="http://www.w3.org/2000/svg">
<path d="M75.8889 22.2809V8.20918H80.5175C81.8675 8.20918 83.0729 8.49158 84.1336 9.05637C85.1943 9.62117 86.0277 10.4339 86.6339 11.4946C87.24 12.5416 87.543 13.802 87.543 15.276C87.543 16.7776 87.2331 18.0518 86.6132 19.0987C86.0071 20.1319 85.1737 20.924 84.1129 21.475C83.0522 22.0123 81.8469 22.2809 80.4969 22.2809H75.8889ZM77.9553 20.7931L77.3354 20.3385H80.3935C81.3165 20.3385 82.1499 20.1595 82.8938 19.8013C83.6515 19.4293 84.2576 18.8714 84.7122 18.1276C85.1668 17.3837 85.3941 16.4332 85.3941 15.276C85.3941 14.1602 85.1668 13.2235 84.7122 12.4658C84.2714 11.6944 83.6721 11.1158 82.9145 10.7301C82.1706 10.3444 81.3372 10.1515 80.4142 10.1515H77.1907L77.9553 9.40765V20.7931ZM91.9797 22.2809H89.9134V8.20918H91.9797V22.2809ZM105.484 22.2809L96.3919 10.4821L97.5491 10.1515V22.2809H95.4828V8.20918H97.2391L106.021 19.5947H105.174V8.20918H107.24V22.2809H105.484ZM120.465 22.5908C119.735 22.5908 119.026 22.4806 118.337 22.2602C117.662 22.0398 117.042 21.6816 116.477 21.1857C115.912 20.676 115.437 19.9873 115.051 19.1194L116.766 18.1482C117.249 19.0161 117.779 19.6429 118.358 20.0286C118.936 20.4143 119.659 20.6072 120.527 20.6072C121.367 20.6072 122.001 20.4212 122.428 20.0492C122.869 19.6773 123.089 19.1676 123.089 18.5202C123.089 18.1344 122.993 17.7969 122.8 17.5077C122.621 17.2184 122.297 16.9498 121.829 16.7018C121.361 16.4538 120.699 16.2265 119.845 16.0199C118.771 15.7444 117.93 15.4069 117.324 15.0074C116.732 14.5941 116.319 14.1258 116.085 13.6023C115.85 13.0651 115.733 12.4865 115.733 11.8666C115.733 11.0952 115.912 10.427 116.271 9.86224C116.629 9.28367 117.145 8.83596 117.82 8.51913C118.495 8.18851 119.294 8.02321 120.217 8.02321C121.319 8.02321 122.228 8.23673 122.945 8.66377C123.661 9.07704 124.267 9.64872 124.763 10.3788L123.027 11.4946C122.6 10.9712 122.153 10.5992 121.684 10.3788C121.23 10.1446 120.741 10.0275 120.217 10.0275C119.418 10.0275 118.805 10.186 118.378 10.5028C117.965 10.8196 117.758 11.2742 117.758 11.8666C117.758 12.3763 117.951 12.8171 118.337 13.189C118.736 13.561 119.508 13.8847 120.651 14.1602C121.808 14.4495 122.711 14.7939 123.358 15.1934C124.019 15.5791 124.481 16.0475 124.742 16.5985C125.018 17.1357 125.156 17.7832 125.156 18.5408C125.156 19.2985 124.963 19.9804 124.577 20.5865C124.191 21.1926 123.647 21.6816 122.945 22.0536C122.242 22.4118 121.416 22.5908 120.465 22.5908ZM127.588 22.2809V8.20918H129.654V22.2809H127.588ZM135.564 22.2809L128.889 15.3793V15.152L135.646 8.20918H138.229L130.77 15.8753L130.976 14.6561L138.353 22.2809H135.564ZM138.054 15.2554C138.054 14.2084 138.233 13.2441 138.591 12.3625C138.963 11.4809 139.48 10.7163 140.141 10.0689C140.802 9.42142 141.574 8.91862 142.455 8.56045C143.351 8.20229 144.322 8.02321 145.369 8.02321C146.402 8.02321 147.359 8.20229 148.241 8.56045C149.123 8.91862 149.887 9.42142 150.535 10.0689C151.196 10.7163 151.706 11.4809 152.064 12.3625C152.436 13.2441 152.622 14.2084 152.622 15.2554C152.622 16.2885 152.436 17.2459 152.064 18.1276C151.706 19.0092 151.196 19.7806 150.535 20.4419C149.887 21.0893 149.123 21.5921 148.241 21.9503C147.359 22.3084 146.402 22.4875 145.369 22.4875C144.322 22.4875 143.351 22.3084 142.455 21.9503C141.574 21.5921 140.802 21.0893 140.141 20.4419C139.48 19.7806 138.963 19.0092 138.591 18.1276C138.233 17.2459 138.054 16.2885 138.054 15.2554ZM140.162 15.2554C140.162 16.261 140.389 17.1633 140.844 17.9623C141.298 18.7475 141.918 19.3674 142.703 19.822C143.488 20.2765 144.377 20.5038 145.369 20.5038C146.361 20.5038 147.242 20.2765 148.014 19.822C148.785 19.3674 149.391 18.7475 149.832 17.9623C150.287 17.1633 150.514 16.261 150.514 15.2554C150.514 14.236 150.287 13.3337 149.832 12.5485C149.391 11.7633 148.785 11.1434 148.014 10.6888C147.242 10.2342 146.361 10.0069 145.369 10.0069C144.377 10.0069 143.488 10.2342 142.703 10.6888C141.918 11.1434 141.298 11.7633 140.844 12.5485C140.389 13.3337 140.162 14.236 140.162 15.2554ZM163.132 22.2809H154.991V8.20918H157.057V20.6278L156.809 20.3385H163.132V22.2809ZM167.056 16.1852V14.2429H172.738V16.1852H167.056ZM166.994 10.1515L167.469 9.4903V20.6485L166.891 20.3179H173.958V22.2809H165.403V8.20918H173.958V10.1515H166.994Z" fill="black"/>
<path d="M7.21969 27.972C11.207 27.972 14.4394 24.7396 14.4394 20.7523C14.4394 16.765 11.207 13.5326 7.21969 13.5326C3.23236 13.5326 0 16.765 0 20.7523C0 24.7396 3.23236 27.972 7.21969 27.972Z" fill="#0049FF"/>
<path d="M53.1805 13.5327C53.0835 13.5327 52.9914 13.5424 52.8993 13.5472V13.5375H45.5632C42.8964 13.5375 40.4382 12.1023 39.1242 9.78464L36.118 4.48503C35.8804 3.90804 35.5749 3.36983 35.2064 2.87527C33.8876 1.12974 31.7978 0 29.4414 0H21.3586C17.373 0 14.1389 3.22922 14.1389 7.21969C14.1389 11.2102 17.373 14.4394 21.3586 14.4394H36.8211C39.4102 14.4394 41.8103 15.7922 43.1534 18.0032L46.5281 23.5646C47.6239 26.1538 50.1889 27.972 53.1756 27.972C57.1613 27.972 60.3953 24.738 60.3953 20.7524C60.3953 16.7667 57.1613 13.5327 53.1756 13.5327H53.1805Z" fill="#0049FF"/>
</svg>
