<?xml version="1.0" encoding="UTF-8"?>
<svg id="Layer_2" data-name="Layer 2" xmlns="http://www.w3.org/2000/svg" viewBox="0 0 63.75 35.13">
  <defs>
    <style>
      .cls-1 {
        fill: none;
        stroke: #fff;
        stroke-miterlimit: 10;
        stroke-width: 1.3px;
      }
    </style>
  </defs>
  <g id="Layer_1-2" data-name="Layer 1">
    <g>
      <path class="cls-1" d="M46.52,26.83V5.98h11.51c1.11,0,2.09.71,2.43,1.76l2.26,6.91c.25.76.37,1.55.37,2.35v9.82"/>
      <polyline class="cls-1" points="60.89 9.06 50.01 9.06 50.01 15.74 63.1 19.21"/>
      <line class="cls-1" x1="51.45" y1="19.76" x2="49.47" y2="19.76"/>
      <line class="cls-1" x1="49.42" y1="19.9" x2="51.51" y2="19.9"/>
      <path class="cls-1" d="M46.52,5.98V.65H3.68C2.01.65.65,2.01.65,3.68v23.15"/>
      <g>
        <circle class="cls-1" cx="13.16" cy="28.87" r="5.61"/>
        <circle class="cls-1" cx="13.16" cy="28.87" r="2.67"/>
        <circle class="cls-1" cx="27.9" cy="28.87" r="5.61"/>
        <circle class="cls-1" cx="27.9" cy="28.87" r="2.67"/>
        <circle class="cls-1" cx="53.78" cy="28.87" r="5.61"/>
        <circle class="cls-1" cx="53.78" cy="28.87" r="2.67"/>
        <line class="cls-1" x1="22.67" y1="26.83" x2="18.39" y2="26.83"/>
        <line class="cls-1" x1="48.55" y1="26.83" x2="33.13" y2="26.83"/>
        <path class="cls-1" d="M59.01,30.92h1.98c1.16,0,2.1-.94,2.1-2.1v-1.99h-4.08"/>
        <line class="cls-1" x1="33.13" y1="30.92" x2="48.55" y2="30.92"/>
        <line class="cls-1" x1="18.39" y1="30.92" x2="22.67" y2="30.92"/>
        <path class="cls-1" d="M7.93,26.83H.65v2.47c0,.89.72,1.62,1.62,1.62h5.67"/>
      </g>
    </g>
  </g>
</svg>