<?xml version="1.0" encoding="UTF-8"?>
<svg id="Layer_2" data-name="Layer 2" xmlns="http://www.w3.org/2000/svg" viewBox="0 0 52.44 33.26">
  <defs>
    <style>
      .cls-1 {
        fill: none;
        stroke: #fff;
        stroke-miterlimit: 10;
        stroke-width: 1.3px;
      }
    </style>
  </defs>
  <g id="Layer_1-2" data-name="Layer 1">
    <g>
      <path class="cls-1" d="M38.51,22.84h12.96c.18,0,.32-.14.32-.32v-.84c0-.93-.54-1.78-1.39-2.16l-7.58-3.43-6.46,10.38c-.43.68-1.17,1.1-1.98,1.1H11.93"/>
      <line class="cls-1" x1="42.82" y1="16.08" x2="36.39" y2="6.41"/>
      <path class="cls-1" d="M34.69,3.03h3.37c.41,0,.73.33.73.73v1.91c0,.41-.33.73-.73.73h-3.37c-.93,0-1.69-.76-1.69-1.69h0c0-.93.76-1.69,1.69-1.69Z"/>
      <path class="cls-1" d="M33.77,6.14l2.8,8.18c.39,1.13.36,2.37-.09,3.48l-2.23,5.54c-.29.72-.98,1.18-1.75,1.18h-7.1"/>
      <path class="cls-1" d="M24.71,27.56l2.13-11.84c.26-1.42-.84-2.73-2.28-2.73h-13.76c-1.29,0-2.34,1.05-2.34,2.34v.75"/>
      <path class="cls-1" d="M26.74,16.27H8.22c-3.28,0-6.12,2.25-6.88,5.44l-.51,2.15h15.47c1.32,0,2.54.69,3.22,1.82l1.13,1.88"/>
      <path class="cls-1" d="M30.47.65h1.26c.79,0,1.53.38,1.99,1.03l.96,1.35"/>
      <path class="cls-1" d="M15.48,27.49c-.6,2.92-3.18,5.12-6.28,5.12-3.54,0-6.41-2.87-6.41-6.41,0-.82.16-1.61.44-2.33"/>
      <path class="cls-1" d="M11.17,23.86c.66.56,1.09,1.4,1.09,2.33,0,1.69-1.37,3.05-3.05,3.05s-3.05-1.37-3.05-3.05c0-.94.42-1.77,1.09-2.33"/>
      <circle class="cls-1" cx="45.38" cy="26.19" r="3.05"/>
      <path class="cls-1" d="M50.85,22.84c.6.98.94,2.12.94,3.35,0,3.54-2.87,6.41-6.41,6.41s-6.41-2.87-6.41-6.41c0-1.23.35-2.38.94-3.35"/>
    </g>
  </g>
</svg>