<?xml version="1.0" encoding="UTF-8"?>
<svg id="Layer_2" data-name="Layer 2" xmlns="http://www.w3.org/2000/svg" viewBox="0 0 52.12 33.21">
  <defs>
    <style>
      .cls-1 {
        fill: none;
        stroke: #fff;
        stroke-miterlimit: 10;
        stroke-width: 1.3px;
      }
    </style>
  </defs>
  <g id="Layer_1-2" data-name="Layer 1">
    <g>
      <path class="cls-1" d="M15.26,22.39c.3.82.47,1.7.47,2.62,0,4.16-3.38,7.54-7.54,7.54S.65,29.18.65,25.02s3.38-7.54,7.54-7.54c2.18,0,4.14.92,5.52,2.4"/>
      <path class="cls-1" d="M39.6,18.84c.71-.5,1.53-.89,2.42-1.12,4.03-1.06,8.15,1.35,9.21,5.38s-1.35,8.15-5.38,9.21-8.15-1.35-9.21-5.38c-.55-2.11-.16-4.24.92-5.94"/>
      <path class="cls-1" d="M31.3,13.8l-9.46-3.68h-6.47l-6.75-5.29H3.83c-1.32,0-1.87,1.69-.81,2.46l16.03,11.73"/>
      <path class="cls-1" d="M22.07,10.21c1.41-2.2,3.88-3.66,6.69-3.66,2.46,0,4.67,1.12,6.12,2.89"/>
      <path class="cls-1" d="M34.13,1.25c-.78.1-1.2.97-.78,1.64.92,1.48,1.9,3.42,1.83,4.85-.14,2.71-1.6,5.2-5.5,7.23-2.03,1.06-4.78,1.35-6.94,1.4-1.94.04-3.49,1.61-3.49,3.55v8.13c0,1.47,1.19,2.66,2.66,2.66h12.5c.21,0,.34-.23.24-.41-.49-.86-.87-1.81-1.11-2.83-1.31-5.57,2.07-11.25,7.6-12.75,1.36-.37,2.72-.21,4.04-.05,0,0,.99-1,1.96-1.78s1.44-1.67,1.5-3.29-.26-3.13-1.98-4.49-5.01-3.76-8.56-3.97c-1.66-.1-3,0-3.96.11Z"/>
      <path class="cls-1" d="M17.24,17.7l-9.54,5.88c-.7.43-.91,1.34-.48,2.04s1.34.91,2.04.48l9.98-6.16"/>
      <path class="cls-1" d="M35.26,18.8l7.4,7.06c.59.56,1.53.54,2.09-.05s.54-1.53-.05-2.09l-7.41-7.06"/>
      <path class="cls-1" d="M47.9,12.42c-1.67,0-3.03-1.36-3.03-3.03s1.36-3.03,3.03-3.03"/>
      <line class="cls-1" x1="23.67" y1="26.32" x2="26.08" y2="26.32"/>
      <path class="cls-1" d="M29.29.65h1.21c.76,0,1.46.37,1.9.98l.92,1.29"/>
      <path class="cls-1" d="M42.33,21.59c.2-.09.42-.17.64-.23,2.02-.53,4.09.68,4.62,2.7s-.68,4.09-2.7,4.62-4.09-.68-4.62-2.7c-.21-.79-.15-1.58.12-2.29"/>
      <path class="cls-1" d="M11.93,24.4c.04.22.05.45.05.68-.04,2.09-1.76,3.76-3.85,3.72s-3.76-1.76-3.72-3.85,1.76-3.76,3.85-3.72c.77.01,1.48.26,2.08.66"/>
    </g>
  </g>
</svg>